<svg xmlns="http://www.w3.org/2000/svg" width="880" height="480" viewBox="0 0 880 480">
<rect width="880" height="480" fill="#ffffff"/>
<text x="78" y="28" font-family="ui-sans-serif,Helvetica,Arial,sans-serif" font-size="18" font-weight="700" fill="#0f172a">Success metric: conditional_beyond @50</text>
<text x="78" y="48" font-family="ui-sans-serif,Helvetica,Arial,sans-serif" font-size="12" fill="#64748b">GT covered by the model but not by corpus MiniLM retrieval · fraction of GT still free</text>
<line x1="78" y1="380.0" x2="852" y2="380.0" stroke="#e2e8f0" stroke-width="1"/>
<text x="68" y="384.0" text-anchor="end" font-family="ui-sans-serif,Helvetica,Arial,sans-serif" font-size="11" fill="#64748b">0.00</text>
<line x1="78" y1="303.0" x2="852" y2="303.0" stroke="#e2e8f0" stroke-width="1"/>
<text x="68" y="307.0" text-anchor="end" font-family="ui-sans-serif,Helvetica,Arial,sans-serif" font-size="11" fill="#64748b">0.10</text>
<line x1="78" y1="226.0" x2="852" y2="226.0" stroke="#e2e8f0" stroke-width="1"/>
<text x="68" y="230.0" text-anchor="end" font-family="ui-sans-serif,Helvetica,Arial,sans-serif" font-size="11" fill="#64748b">0.20</text>
<line x1="78" y1="149.0" x2="852" y2="149.0" stroke="#e2e8f0" stroke-width="1"/>
<text x="68" y="153.0" text-anchor="end" font-family="ui-sans-serif,Helvetica,Arial,sans-serif" font-size="11" fill="#64748b">0.30</text>
<line x1="78" y1="72.0" x2="852" y2="72.0" stroke="#e2e8f0" stroke-width="1"/>
<text x="68" y="76.0" text-anchor="end" font-family="ui-sans-serif,Helvetica,Arial,sans-serif" font-size="11" fill="#64748b">0.40</text>
<text x="18" y="226" text-anchor="middle" transform="rotate(-90 18 226)" font-family="ui-sans-serif,Helvetica,Arial,sans-serif" font-size="12" fill="#475569">beyond / (GT − retrieval)  ∈ [0, 1]</text>
<rect x="114.1" y="254.5" width="54.5" height="125.5" fill="#2563eb" rx="2"/>
<text x="141.4" y="248.5" text-anchor="middle" font-family="ui-sans-serif,Helvetica,Arial,sans-serif" font-size="10" fill="#334155">0.163</text>
<rect x="176.0" y="283.8" width="54.5" height="96.2" fill="#64748b" rx="2"/>
<text x="203.3" y="277.8" text-anchor="middle" font-family="ui-sans-serif,Helvetica,Arial,sans-serif" font-size="10" fill="#334155">0.125</text>
<rect x="238.0" y="209.8" width="54.5" height="170.2" fill="#059669" rx="2"/>
<text x="265.2" y="203.8" text-anchor="middle" font-family="ui-sans-serif,Helvetica,Arial,sans-serif" font-size="10" fill="#334155">0.221</text>
<text x="207.0" y="402" text-anchor="middle" font-family="ui-sans-serif,Helvetica,Arial,sans-serif" font-size="12" font-weight="600" fill="#334155">2023</text>
<rect x="372.1" y="121.3" width="54.5" height="258.7" fill="#2563eb" rx="2"/>
<text x="399.4" y="115.3" text-anchor="middle" font-family="ui-sans-serif,Helvetica,Arial,sans-serif" font-size="10" fill="#334155">0.336</text>
<rect x="434.0" y="256.8" width="54.5" height="123.2" fill="#64748b" rx="2"/>
<text x="461.3" y="250.8" text-anchor="middle" font-family="ui-sans-serif,Helvetica,Arial,sans-serif" font-size="10" fill="#334155">0.160</text>
<rect x="496.0" y="263.7" width="54.5" height="116.3" fill="#059669" rx="2"/>
<text x="523.2" y="257.7" text-anchor="middle" font-family="ui-sans-serif,Helvetica,Arial,sans-serif" font-size="10" fill="#334155">0.151</text>
<text x="465.0" y="402" text-anchor="middle" font-family="ui-sans-serif,Helvetica,Arial,sans-serif" font-size="12" font-weight="600" fill="#334155">2024</text>
<rect x="630.1" y="132.1" width="54.5" height="247.9" fill="#2563eb" rx="2"/>
<text x="657.4" y="126.1" text-anchor="middle" font-family="ui-sans-serif,Helvetica,Arial,sans-serif" font-size="10" fill="#334155">0.322</text>
<rect x="692.0" y="266.8" width="54.5" height="113.2" fill="#64748b" rx="2"/>
<text x="719.3" y="260.8" text-anchor="middle" font-family="ui-sans-serif,Helvetica,Arial,sans-serif" font-size="10" fill="#334155">0.147</text>
<rect x="754.0" y="315.3" width="54.5" height="64.7" fill="#059669" rx="2"/>
<text x="781.2" y="309.3" text-anchor="middle" font-family="ui-sans-serif,Helvetica,Arial,sans-serif" font-size="10" fill="#334155">0.084</text>
<text x="723.0" y="402" text-anchor="middle" font-family="ui-sans-serif,Helvetica,Arial,sans-serif" font-size="12" font-weight="600" fill="#334155">2025</text>
<rect x="78" y="438" width="12" height="12" fill="#2563eb" rx="2"/>
<text x="96" y="448" font-family="ui-sans-serif,Helvetica,Arial,sans-serif" font-size="12" fill="#334155">literature_lora</text>
<rect x="214.0" y="438" width="12" height="12" fill="#64748b" rx="2"/>
<text x="232.0" y="448" font-family="ui-sans-serif,Helvetica,Arial,sans-serif" font-size="12" fill="#334155">mistral_base</text>
<rect x="328.4" y="438" width="12" height="12" fill="#059669" rx="2"/>
<text x="346.4" y="448" font-family="ui-sans-serif,Helvetica,Arial,sans-serif" font-size="12" fill="#334155">braingpt</text>
<text x="440.0" y="468" text-anchor="middle" font-family="ui-sans-serif,Helvetica,Arial,sans-serif" font-size="10" fill="#94a3b8">Source: bench22_inst_base · mean LoRA 0.274 vs BrainGPT 0.152 / Mistral 0.144</text>
</svg>